<?xml version="1.0" encoding="UTF-8" standalone="no" ?>
<!DOCTYPE svg PUBLIC "-//W3C//DTD SVG 1.1//EN" "http://www.w3.org/Graphics/SVG/1.1/DTD/svg11.dtd">
<svg xmlns="http://www.w3.org/2000/svg" xmlns:xlink="http://www.w3.org/1999/xlink" version="1.1" width="350" height="350" viewBox="0 0 350 350" xml:space="preserve">
<desc>Created with Fabric.js 1.7.22</desc>
<defs>
</defs>
<g id="icon" style="stroke: none; stroke-width: 1; stroke-dasharray: none; stroke-linecap: butt; stroke-linejoin: miter; stroke-miterlimit: 10; fill: none; fill-rule: nonzero; opacity: 1;" transform="translate(-1.9444444444444287 -1.9444444444444287) scale(3.89 3.89)" >
	<path d="M 22.5 68.5 c -0.264 0 -0.519 -0.104 -0.707 -0.293 c -0.205 -0.205 -0.311 -0.488 -0.291 -0.777 l 0.479 -6.772 c 0.017 -0.24 0.12 -0.467 0.291 -0.637 l 17.403 -17.403 c -2.499 -5.664 -1.282 -12.295 3.131 -16.709 c 5.868 -5.868 15.416 -5.868 21.285 0 c 5.868 5.868 5.868 15.417 0 21.285 c -4.413 4.413 -11.043 5.632 -16.708 3.132 l -4.099 4.099 c -0.152 0.152 -0.349 0.251 -0.561 0.282 l -4.169 0.616 l -0.617 4.161 c -0.064 0.436 -0.407 0.778 -0.843 0.843 l -4.161 0.616 l -0.617 4.17 c -0.031 0.212 -0.13 0.409 -0.282 0.561 l -2.055 2.056 c -0.17 0.17 -0.396 0.273 -0.637 0.29 l -6.773 0.479 C 22.547 68.499 22.523 68.5 22.5 68.5 z M 23.95 61.171 l -0.372 5.25 l 5.251 -0.37 l 1.557 -1.559 l 0.677 -4.577 c 0.064 -0.436 0.407 -0.778 0.843 -0.843 l 4.161 -0.616 l 0.617 -4.161 c 0.064 -0.437 0.407 -0.778 0.843 -0.843 l 4.577 -0.676 l 4.361 -4.362 c 0.304 -0.307 0.769 -0.38 1.154 -0.188 c 5.028 2.512 11.08 1.529 15.058 -2.447 c 5.089 -5.089 5.089 -13.368 0 -18.457 c -5.088 -5.087 -13.367 -5.088 -18.457 0 c -3.976 3.977 -4.959 10.028 -2.447 15.059 c 0.192 0.385 0.117 0.85 -0.188 1.154 L 23.95 61.171 z" style="stroke: none; stroke-width: 1; stroke-dasharray: none; stroke-linecap: butt; stroke-linejoin: miter; stroke-miterlimit: 10; fill: rgb(0,0,0); fill-rule: nonzero; opacity: 1;" transform=" matrix(1 0 0 1 0 0) " stroke-linecap="round" />
	<path d="M 57.548 37.07 c -1.233 0 -2.393 -0.48 -3.265 -1.353 s -1.353 -2.032 -1.353 -3.265 c 0 -1.234 0.48 -2.393 1.353 -3.265 s 2.031 -1.353 3.265 -1.353 s 2.394 0.48 3.266 1.353 c 1.8 1.8 1.8 4.729 0 6.53 l 0 0 C 59.941 36.589 58.781 37.07 57.548 37.07 z M 57.548 29.834 c -0.699 0 -1.356 0.272 -1.851 0.767 c -0.494 0.495 -0.767 1.152 -0.767 1.851 s 0.272 1.356 0.767 1.851 c 0.988 0.988 2.712 0.988 3.702 0 l 0 0 c 1.02 -1.021 1.02 -2.682 0 -3.702 C 58.905 30.107 58.247 29.834 57.548 29.834 z M 60.106 35.01 h 0.01 H 60.106 z" style="stroke: none; stroke-width: 1; stroke-dasharray: none; stroke-linecap: butt; stroke-linejoin: miter; stroke-miterlimit: 10; fill: rgb(0,0,0); fill-rule: nonzero; opacity: 1;" transform=" matrix(1 0 0 1 0 0) " stroke-linecap="round" />
	<path d="M 45 90 C 20.187 90 0 69.813 0 45 C 0 20.187 20.187 0 45 0 c 24.813 0 45 20.187 45 45 C 90 69.813 69.813 90 45 90 z M 45 2 C 21.29 2 2 21.29 2 45 c 0 23.71 19.29 43 43 43 c 23.71 0 43 -19.29 43 -43 C 88 21.29 68.71 2 45 2 z" style="stroke: none; stroke-width: 1; stroke-dasharray: none; stroke-linecap: butt; stroke-linejoin: miter; stroke-miterlimit: 10; fill: rgb(0,0,0); fill-rule: nonzero; opacity: 1;" transform=" matrix(1 0 0 1 0 0) " stroke-linecap="round" />
</g>
</svg>